<?xml version="1.0" standalone="no"?>
<!DOCTYPE svg PUBLIC "-//W3C//DTD SVG 20010904//EN"
 "http://www.w3.org/TR/2001/REC-SVG-20010904/DTD/svg10.dtd">
<svg version="1.0" xmlns="http://www.w3.org/2000/svg"
 width="474.000000pt" height="473.000000pt" viewBox="0 0 474.000000 473.000000"
 preserveAspectRatio="xMidYMid meet">

<g transform="translate(0.000000,473.000000) scale(0.100000,-0.100000)"
fill="#000000" stroke="none">
<path d="M2166 4444 c-441 -80 -917 -445 -1140 -873 -109 -210 -150 -390 -150
-651 1 -187 19 -296 80 -480 81 -244 201 -439 378 -615 306 -304 649 -446
1046 -432 560 19 1079 338 1335 819 94 177 143 350 152 539 10 205 -24 368
-116 560 -129 271 -302 451 -546 571 -55 27 -105 56 -112 65 -7 9 -26 58 -43
109 -64 192 -179 311 -355 367 -119 38 -378 48 -529 21z m381 -155 c98 -13
202 -59 248 -110 34 -37 95 -147 95 -170 0 -7 -10 -9 -27 -4 -15 3 -106 6
-203 5 -357 -1 -567 -60 -793 -221 -233 -166 -382 -395 -442 -680 -19 -87 -19
-278 -1 -379 50 -275 269 -567 526 -699 143 -73 259 -102 415 -102 270 0 498
100 705 310 139 141 238 301 291 471 19 61 24 97 24 190 0 139 -20 194 -96
265 -141 132 -352 132 -482 2 -50 -50 -81 -118 -106 -236 -12 -52 -32 -113
-45 -136 -97 -164 -330 -207 -469 -85 -66 58 -91 116 -90 209 2 222 104 318
473 446 262 92 345 152 429 314 49 94 54 96 146 53 158 -75 356 -287 453 -483
70 -142 94 -241 99 -410 4 -113 2 -165 -12 -230 -91 -451 -423 -815 -886 -970
-198 -66 -471 -96 -650 -70 -247 37 -487 163 -699 367 -205 199 -327 415 -386
684 -26 120 -27 419 0 540 61 283 193 526 391 725 291 292 728 454 1092 404z
m235 -440 c51 -12 92 -27 95 -35 15 -41 -120 -186 -227 -243 -30 -16 -118 -51
-195 -76 -161 -54 -215 -80 -303 -142 -71 -50 -131 -121 -171 -202 -39 -77
-43 -102 -42 -216 2 -167 34 -248 135 -343 178 -169 456 -169 623 -1 61 61
100 131 148 263 19 53 46 118 59 145 61 119 162 145 245 62 139 -139 66 -445
-163 -688 -180 -191 -361 -273 -600 -273 -286 0 -532 132 -686 366 -142 217
-172 536 -73 782 126 315 437 536 843 597 193 29 203 30 312 4z"/>
<path d="M985 1070 c-122 -39 -209 -124 -255 -248 -19 -50 -21 -72 -18 -177 4
-105 8 -127 31 -176 32 -66 108 -141 175 -172 64 -30 261 -32 335 -4 46 18 47
19 47 63 0 24 -2 44 -4 44 -2 0 -24 -9 -49 -20 -67 -30 -190 -37 -255 -16 -65
22 -126 81 -160 154 -23 49 -27 70 -27 147 1 112 22 177 77 240 48 54 93 79
170 94 63 11 151 1 212 -24 l36 -15 0 48 c0 47 -1 49 -37 61 -21 7 -78 14
-128 17 -71 3 -103 0 -150 -16z"/>
<path d="M1772 817 c-78 -150 -173 -332 -212 -405 l-69 -133 52 3 51 3 156
297 c85 164 159 296 165 295 5 -2 79 -137 164 -300 l155 -297 48 0 c26 0 48 3
48 7 0 7 -140 279 -312 605 l-104 197 -142 -272z"/>
<path d="M3440 695 l0 -395 45 0 45 0 0 180 0 180 205 0 205 0 0 -180 0 -180
50 0 50 0 0 395 0 395 -50 0 -50 0 0 -175 0 -175 -205 0 -205 0 0 175 0 175
-45 0 -45 0 0 -395z"/>
<path d="M2560 1040 l0 -40 211 0 c176 0 210 -2 206 -14 -3 -8 -100 -153 -215
-322 -115 -170 -217 -324 -226 -341 l-17 -33 300 0 c165 0 302 3 304 8 3 4 2
22 0 39 l-5 33 -224 0 c-123 0 -224 2 -224 5 0 3 104 158 230 345 127 186 230
343 230 349 0 8 -86 11 -285 11 l-285 0 0 -40z"/>
</g>
</svg>
